<?xml version="1.0" encoding="UTF-8" standalone="no"?>
<!-- Created with Inkscape (http://www.inkscape.org/) -->

<svg
   width="512"
   height="512"
   viewBox="0 0 512 512"
   version="1.1"
   id="svg1"
   sodipodi:docname="car.svg"
   inkscape:version="1.4.3 (0d15f75042, 2025-12-25)"
   inkscape:export-filename="car-exported.svg"
   inkscape:export-xdpi="96"
   inkscape:export-ydpi="96"
   xmlns:inkscape="http://www.inkscape.org/namespaces/inkscape"
   xmlns:sodipodi="http://sodipodi.sourceforge.net/DTD/sodipodi-0.dtd"
   xmlns="http://www.w3.org/2000/svg"
   xmlns:svg="http://www.w3.org/2000/svg">
  <sodipodi:namedview
     id="namedview1"
     pagecolor="#ffffff"
     bordercolor="#000000"
     borderopacity="0.25"
     inkscape:showpageshadow="2"
     inkscape:pageopacity="0.0"
     inkscape:pagecheckerboard="0"
     inkscape:deskcolor="#d1d1d1"
     inkscape:document-units="px"
     inkscape:zoom="1.4215912"
     inkscape:cx="319.71216"
     inkscape:cy="259.92001"
     inkscape:window-width="1025"
     inkscape:window-height="1038"
     inkscape:window-x="0"
     inkscape:window-y="0"
     inkscape:window-maximized="1"
     inkscape:current-layer="layer1" />
  <defs
     id="defs1" />
  <g
     inkscape:label="car"
     inkscape:groupmode="layer"
     id="layer1">
    <rect
       style="fill:#000000;stroke:none;stroke-width:8;stroke-miterlimit:7.1;paint-order:markers fill stroke"
       id="rect2"
       width="49.769154"
       height="69.50621"
       x="68.840683"
       y="347.71158"
       inkscape:label="l-tire" />
    <rect
       style="fill:#000000;stroke:none;stroke-width:8;stroke-miterlimit:7.1;paint-order:markers fill stroke"
       id="rect3"
       width="49.769154"
       height="69.50621"
       x="393.39011"
       y="347.71158"
       inkscape:label="r-tire" />
    <path
       id="rect1"
       style="fill:none;stroke:#000000;stroke-width:32;stroke-linecap:butt;stroke-linejoin:round;stroke-miterlimit:7.1;stroke-dasharray:none;stroke-opacity:1;paint-order:markers fill stroke"
       d="M 84.840683,349.40813 H 427.15926 V 219.95452 H 354.56087 255.99996 157.43906 84.840683 Z M 427.15926,219.95452 384.08058,108.86221 H 127.91937 L 84.840683,219.95452"
       inkscape:label="car-body"
       sodipodi:nodetypes="cccccccccc" />
    <path
       id="path4"
       style="stroke-width:19.9679;fill:#000000;fill-opacity:1;stroke-miterlimit:7.1;paint-order:markers fill stroke"
       d="m 218.50185,314.05461 a 20.063757,19.871584 0 0 1 -20.06376,19.87158 20.063757,19.871584 0 0 1 -20.06375,-19.87158 20.063757,19.871584 0 0 1 20.06375,-19.87159 20.063757,19.871584 0 0 1 20.06376,19.87159 z"
       inkscape:label="l-light"
       transform="matrix(1.6025692,0,0,1.6025692,-154.25775,-215.3536)" />
    <path
       id="path4-3"
       style="stroke-width:19.9679;fill:#000000;fill-opacity:1;stroke-miterlimit:7.1;paint-order:markers fill stroke"
       d="m 333.62567,314.15895 a 20.063757,19.871584 0 0 1 -20.06375,19.8716 20.063757,19.871584 0 0 1 -20.06376,-19.8716 20.063757,19.871584 0 0 1 20.06376,-19.87158 20.063757,19.871584 0 0 1 20.06375,19.87158 z"
       inkscape:label="r-light"
       transform="matrix(1.6025692,0,0,1.6025692,-154.25775,-215.3536)" />
  </g>
</svg>
